<svg version="1" xmlns="http://www.w3.org/2000/svg" width="666.667" height="666.667" viewBox="0 0 500.000000 500.000000"><path d="M311 61c0 2.7-.3 3-3 3s-3 .3-3 3-.3 3-3 3-3 .3-3 3-.3 3-3 3-3 .3-3 3c0 2.8-.3 3-3.5 3s-3.5.2-3.5 3c0 2.7-.3 3-3 3s-3 .3-3 3v3h-24v6h-12v7h-12v3c0 2.8-.3 3-3.5 3s-3.5.2-3.5 3c0 2.7-.3 3-3 3s-3 .3-3 3-.3 3-3 3-3 .3-3 3-.3 3-3 3-3 .3-3 3-.3 3-3 3-3 .3-3 3-.3 3-3 3h-3v12h-6v-12h-3c-2.7 0-3-.3-3-3s-.3-3-3-3-3-.3-3-3v-3h-13v-6h-18v6h-12v6h-12v6h-12v6H97v6H85v6H73v7H61v6H49v6H36v6H24v6H12v3c0 2.7-.3 3-3 3s-3 .3-3 3-.3 3-3 3H0v31h3c2.7 0 3 .3 3 3s.3 3 3 3 3 .3 3 3 .3 3 3 3 3 .3 3 3 .3 3 3 3 3 .3 3 3 .3 3 3 3 3 .3 3 3 .3 3 3 3 3 .3 3 3c0 2.8.3 3 3.5 3s3.5.2 3.5 3c0 2.7.3 3 3 3s3 .3 3 3 .3 3 3 3 3 .3 3 3 .3 3 3 3c2.8 0 3 .3 3 3.5s.2 3.5 3 3.5c2.7 0 3 .3 3 3s.3 3 3 3 3 .3 3 3 .3 3 3 3 3 .3 3 3 .3 3 3 3 3 .3 3 3 .3 3 3 3 3 .3 3 3 .3 3 3 3 3 .3 3 3 .3 3 3 3 3 .3 3 3c0 2.8.3 3 3.5 3s3.5.2 3.5 3c0 2.7.3 3 3 3s3 .3 3 3 .3 3 3 3 3 .3 3 3 .3 3 3 3c2.8 0 3 .3 3 3.5s.2 3.5 3 3.5c2.7 0 3 .3 3 3s.3 3 3 3 3 .3 3 3 .3 3 3 3 3 .3 3 3 .3 3 3 3 3 .3 3 3 .3 3 3 3 3 .3 3 3 .3 3 3 3 3 .3 3 3c0 2.8.3 3 3.5 3s3.5.2 3.5 3c0 2.7.3 3 3 3s3 .3 3 3 .3 3 3 3 3 .3 3 3 .3 3 3 3c2.8 0 3 .3 3 3.5s.2 3.5 3 3.5c2.7 0 3 .3 3 3s.3 3 3 3 3 .3 3 3 .3 3 3 3 3 .3 3 3v3h12v-6h13v-6h12v-6h12v-7h12v-6h12v-6h13v-6h12v-6h12v-6h12v-6h12v-6h12v-6h13v-3c0-2.7.3-3 3-3 2.8 0 3-.3 3-3.5s.2-3.5 3-3.5c2.7 0 3-.3 3-3s.3-3 3-3 3-.3 3-3 .3-3 3-3 3-.3 3-3 .3-3 3-3 3-.3 3-3 .3-3 3-3 3-.3 3-3 .3-3 3-3 3-.3 3-3 .3-3 3-3 3-.3 3-3c0-2.8.3-3 3.5-3s3.5-.2 3.5-3c0-2.7.3-3 3-3s3-.3 3-3 .3-3 3-3 3-.3 3-3 .3-3 3-3c2.8 0 3-.3 3-3.5s.2-3.5 3-3.5c2.7 0 3-.3 3-3s.3-3 3-3 3-.3 3-3 .3-3 3-3 3-.3 3-3 .3-3 3-3 3-.3 3-3 .3-3 3-3 3-.3 3-3 .3-3 3-3 3-.3 3-3c0-2.8.3-3 3.5-3s3.5-.2 3.5-3c0-2.7.3-3 3-3s3-.3 3-3 .3-3 3-3 3-.3 3-3 .3-3 3-3h3v-19h-3c-2.7 0-3-.3-3-3s-.3-3-3-3-3-.3-3-3-.3-3-3-3-3-.3-3-3c0-2.8-.3-3-3.5-3s-3.5-.2-3.5-3c0-2.7-.3-3-3-3s-3-.3-3-3-.3-3-3-3-3-.3-3-3-.3-3-3-3-3-.3-3-3-.3-3-3-3-3-.3-3-3-.3-3-3-3c-2.8 0-3-.3-3-3.5s-.2-3.5-3-3.5c-2.7 0-3-.3-3-3s-.3-3-3-3-3-.3-3-3-.3-3-3-3-3-.3-3-3-.3-3-3-3-3-.3-3-3c0-2.8-.3-3-3.5-3s-3.5-.2-3.5-3c0-2.7-.3-3-3-3s-3-.3-3-3-.3-3-3-3-3-.3-3-3-.3-3-3-3-3-.3-3-3-.3-3-3-3-3-.3-3-3-.3-3-3-3c-2.8 0-3-.3-3-3.5s-.2-3.5-3-3.5c-2.7 0-3-.3-3-3s-.3-3-3-3-3-.3-3-3-.3-3-3-3-3-.3-3-3-.3-3-3-3-3-.3-3-3c0-2.8-.3-3-3.5-3s-3.5-.2-3.5-3c0-2.7-.3-3-3-3s-3-.3-3-3-.3-3-3-3-3-.3-3-3v-3h-30v3z"/></svg>